<?xml version="1.0" encoding="utf-8"?>
<!-- Generator: Adobe Illustrator 21.1.0, SVG Export Plug-In . SVG Version: 6.00 Build 0)  -->
<svg version="1.1" id="Layer_1" xmlns="http://www.w3.org/2000/svg" xmlns:xlink="http://www.w3.org/1999/xlink" x="0px" y="0px"
	 viewBox="0 0 3061.4 3061.4" style="enable-background:new 0 0 3061.4 3061.4;" xml:space="preserve">
<style type="text/css">
	.st0{fill:#0A73B9;}
	.st1{fill:#EB2332;}
	.st2{fill:#464650;}
</style>
<circle class="st0" cx="680.5" cy="1456.4" r="277.6"/>
<circle class="st1" cx="806.9" cy="1520.3" r="277.6"/>
<path class="st2" d="M529.3,1520.3c0,82.7,36.1,156.9,93.4,207.7c18.6,3.9,38,6,57.8,6c153.3,0,277.6-124.3,277.6-277.6
	c0-82.7-36.1-156.9-93.4-207.7c-18.6-3.9-38-6-57.8-6C653.6,1242.7,529.3,1367,529.3,1520.3z"/>
<g>
	<path class="st2" d="M1409.2,1515.1h60.4l37.4,115.2h0.8l31.3-115.2h61.9l34,115.2h0.8l34.4-115.2h57.4l-65.3,183.5h-55.9
		l-38.1-122h-0.8l-34,122h-57L1409.2,1515.1z"/>
	<path class="st2" d="M1892.3,1667c-9.1,11.6-20.5,20.5-34.4,26.8c-13.9,6.3-28.2,9.4-43.1,9.4c-14.1,0-27.4-2.3-39.8-6.8
		c-12.5-4.5-23.3-11-32.5-19.5c-9.2-8.4-16.4-18.6-21.7-30.4c-5.3-11.8-7.9-25-7.9-39.7c0-14.6,2.6-27.8,7.9-39.7
		c5.3-11.8,12.5-22,21.7-30.4c9.2-8.4,20-14.9,32.5-19.4c12.5-4.5,25.7-6.8,39.8-6.8c13.1,0,25,2.3,35.7,6.8s19.8,11,27.2,19.4
		c7.4,8.4,13.2,18.6,17.2,30.4c4,11.8,6,25.1,6,39.7v17.8h-131.4c2.3,10.8,7.2,19.4,14.7,25.9c7.6,6.4,16.9,9.6,28,9.6
		c9.3,0,17.2-2.1,23.6-6.2c6.4-4.2,12-9.5,16.8-16.1L1892.3,1667z M1844.3,1586.1c0.2-9.6-2.9-17.7-9.4-24.5
		c-6.6-6.8-15-10.2-25.3-10.2c-6.3,0-11.8,1-16.6,3c-4.8,2-8.9,4.6-12.3,7.7c-3.4,3.2-6,6.8-7.9,11c-1.9,4.2-3,8.5-3.2,13H1844.3z"
		/>
	<path class="st2" d="M1915.9,1515.1h54.4v24.9h0.8c1.8-3.5,4.3-7,7.6-10.6c3.3-3.5,7.2-6.7,11.7-9.4c4.5-2.8,9.7-5,15.5-6.8
		c5.8-1.8,12.1-2.6,18.9-2.6c14.4,0,25.9,2.2,34.7,6.6c8.8,4.4,15.7,10.5,20.6,18.3c4.9,7.8,8.2,17,10,27.6
		c1.8,10.6,2.6,22,2.6,34.4v101.2H2036v-89.9c0-5.3-0.2-10.8-0.6-16.4s-1.5-10.9-3.4-15.7c-1.9-4.8-4.8-8.7-8.7-11.7
		c-3.9-3-9.5-4.5-16.8-4.5c-7.3,0-13.2,1.3-17.8,4c-4.5,2.6-8,6.2-10.4,10.6c-2.4,4.4-4,9.4-4.7,14.9c-0.8,5.5-1.1,11.3-1.1,17.4
		v91.4h-56.6V1515.1z"/>
	<path class="st2" d="M2376.5,1728.5c-3.8,9.8-7.4,18.5-11,26.1c-3.5,7.6-8,13.9-13.4,19.1c-5.4,5.2-12.3,9.1-20.6,11.7
		c-8.3,2.6-19.3,4-32.9,4c-14.6,0-28.7-2.3-42.3-6.8l7.6-46.5c8.6,3.8,17.4,5.7,26.4,5.7c6.3,0,11.5-0.7,15.5-2.1
		c4-1.4,7.4-3.4,10-6c2.6-2.6,4.8-5.9,6.6-9.6c1.8-3.8,3.7-8.2,5.7-13.2l4.2-10.6l-80.4-185.1h61.2l47.2,121.2h0.8l40.4-121.2h58.2
		L2376.5,1728.5z"/>
	<path class="st2" d="M1477.9,1560.5l-15.9-45.3H1359v-54.4h-37.3c-3.3,8.6-6.6,16.3-9.8,23.1c-3.5,7.6-8,13.9-13.4,19.1
		c-5.4,5.2-12.3,9.1-20.6,11.7c-3.5,1.1-7.5,1.9-11.8,2.6v43.3h36.3v87.2c0,10.1,1.7,18.6,5.1,25.7c3.4,7.1,8.1,12.8,14.2,17.2
		c6,4.4,13.1,7.6,21.2,9.6c8.1,2,16.9,3,26.4,3c6.5,0,13.2-0.4,20-1.1c6.8-0.8,13.3-2.3,19.6-4.5v-47.2c-2.5,2.3-6.2,3.7-11.1,4.3
		c-4.9,0.6-8.9,0.9-11.9,0.9c-6,0-10.9-0.8-14.5-2.5c-3.6-1.6-6.4-4-8.1-7c-1.8-3-2.9-6.6-3.4-10.8c-0.5-4.2-0.8-8.7-0.8-13.8v-61.2
		H1477.9z"/>
	<path class="st2" d="M2322.8,1560.5l-15.9-45.3h-102.9v-54.4h-37.3c-3.3,8.6-6.6,16.3-9.8,23.1c-3.5,7.6-8,13.9-13.4,19.1
		c-5.4,5.2-12.3,9.1-20.6,11.7c-3.5,1.1-7.5,1.9-11.8,2.6v43.3h36.3v87.2c0,10.1,1.7,18.6,5.1,25.7c3.4,7.1,8.1,12.8,14.2,17.2
		c6,4.4,13.1,7.6,21.2,9.6c8.1,2,16.9,3,26.4,3c6.5,0,13.2-0.4,20-1.1c6.8-0.8,13.3-2.3,19.6-4.5v-47.2c-2.5,2.3-6.2,3.7-11.1,4.3
		c-4.9,0.6-8.9,0.9-11.9,0.9c-6,0-10.9-0.8-14.5-2.5c-3.6-1.6-6.4-4-8.1-7c-1.8-3-2.9-6.6-3.4-10.8c-0.5-4.2-0.8-8.7-0.8-13.8v-61.2
		H2322.8z"/>
	<g>
		<path class="st2" d="M1192.8,1236.7h60.4l37.4,115.2h0.8l31.3-115.2h61.9l34,115.2h0.8l34.4-115.2h57.4l-65.3,183.5h-55.9
			l-38.1-122h-0.8l-34,122h-57L1192.8,1236.7z"/>
		<path class="st2" d="M1675.8,1388.5c-9.1,11.6-20.5,20.5-34.4,26.8c-13.9,6.3-28.2,9.4-43.1,9.4c-14.1,0-27.4-2.3-39.8-6.8
			c-12.5-4.5-23.3-11-32.5-19.5c-9.2-8.4-16.4-18.6-21.7-30.4c-5.3-11.8-7.9-25-7.9-39.7c0-14.6,2.6-27.8,7.9-39.7
			c5.3-11.8,12.5-22,21.7-30.4c9.2-8.4,20-14.9,32.5-19.4c12.5-4.5,25.7-6.8,39.8-6.8c13.1,0,25,2.3,35.7,6.8
			c10.7,4.5,19.8,11,27.2,19.4c7.4,8.4,13.2,18.6,17.2,30.4c4,11.8,6,25.1,6,39.7v17.8h-131.4c2.3,10.8,7.2,19.4,14.7,25.9
			c7.6,6.4,16.9,9.6,28,9.6c9.3,0,17.2-2.1,23.6-6.2c6.4-4.2,12-9.5,16.8-16.1L1675.8,1388.5z M1627.9,1307.7
			c0.2-9.6-2.9-17.7-9.4-24.5c-6.6-6.8-15-10.2-25.3-10.2c-6.3,0-11.8,1-16.6,3c-4.8,2-8.9,4.6-12.3,7.7c-3.4,3.2-6,6.8-7.9,11
			c-1.9,4.2-3,8.5-3.2,13H1627.9z"/>
		<path class="st2" d="M1699.5,1236.7h54.4v24.9h0.8c1.8-3.5,4.3-7,7.6-10.6c3.3-3.5,7.2-6.7,11.7-9.4c4.5-2.8,9.7-5,15.5-6.8
			c5.8-1.8,12.1-2.6,18.9-2.6c14.4,0,25.9,2.2,34.7,6.6c8.8,4.4,15.7,10.5,20.6,18.3c4.9,7.8,8.2,17,10,27.6
			c1.8,10.6,2.6,22,2.6,34.4v101.2h-56.7v-89.9c0-5.3-0.2-10.8-0.6-16.4s-1.5-10.9-3.4-15.7c-1.9-4.8-4.8-8.7-8.7-11.7
			c-3.9-3-9.5-4.5-16.8-4.5c-7.3,0-13.2,1.3-17.8,4c-4.5,2.6-8,6.2-10.4,10.6c-2.4,4.4-4,9.4-4.7,14.9c-0.8,5.5-1.1,11.3-1.1,17.4
			v91.4h-56.6V1236.7z"/>
		<path class="st2" d="M2160,1450.1c-3.8,9.8-7.4,18.5-11,26.1c-3.5,7.6-8,13.9-13.4,19.1c-5.4,5.2-12.3,9.1-20.6,11.7
			c-8.3,2.6-19.3,4-32.9,4c-14.6,0-28.7-2.3-42.3-6.8l7.6-46.5c8.6,3.8,17.4,5.7,26.4,5.7c6.3,0,11.5-0.7,15.5-2.1
			c4-1.4,7.4-3.4,10-6c2.6-2.6,4.8-5.9,6.6-9.6c1.8-3.8,3.7-8.2,5.7-13.2l4.2-10.6l-80.4-185.1h61.2l47.2,121.2h0.8l40.4-121.2h58.2
			L2160,1450.1z"/>
		<path class="st2" d="M1261.4,1282l-15.9-45.3h-102.9v-54.4h-37.3c-3.3,8.6-6.6,16.3-9.8,23.1c-3.5,7.6-8,13.9-13.4,19.1
			c-5.4,5.2-12.3,9.1-20.6,11.7c-3.5,1.1-7.5,1.9-11.8,2.6v43.3h36.3v87.2c0,10.1,1.7,18.6,5.1,25.7c3.4,7.1,8.1,12.8,14.2,17.2
			c6,4.4,13.1,7.6,21.2,9.6c8.1,2,16.9,3,26.4,3c6.5,0,13.2-0.4,20-1.1c6.8-0.8,13.3-2.3,19.6-4.5v-47.2c-2.5,2.3-6.2,3.7-11.1,4.3
			c-4.9,0.6-8.9,0.9-11.9,0.9c-6,0-10.9-0.8-14.5-2.5c-3.6-1.6-6.4-4-8.1-7c-1.8-3-2.9-6.6-3.4-10.8c-0.5-4.2-0.8-8.7-0.8-13.8V1282
			H1261.4z"/>
		<path class="st2" d="M2106.3,1282l-15.9-45.3h-102.9v-54.4h-37.3c-3.3,8.6-6.6,16.3-9.8,23.1c-3.5,7.6-8,13.9-13.4,19.1
			c-5.4,5.2-12.3,9.1-20.6,11.7c-3.5,1.1-7.5,1.9-11.8,2.6v43.3h36.3v87.2c0,10.1,1.7,18.6,5.1,25.7c3.4,7.1,8.1,12.8,14.2,17.2
			c6,4.4,13.1,7.6,21.2,9.6c8.1,2,16.9,3,26.4,3c6.5,0,13.2-0.4,20-1.1c6.8-0.8,13.3-2.3,19.6-4.5v-47.2c-2.5,2.3-6.2,3.7-11.1,4.3
			c-4.9,0.6-8.9,0.9-11.9,0.9c-6,0-10.9-0.8-14.5-2.5c-3.6-1.6-6.4-4-8.1-7c-1.8-3-2.9-6.6-3.4-10.8c-0.5-4.2-0.8-8.7-0.8-13.8V1282
			H2106.3z"/>
	</g>
</g>
<path class="st1" d="M921.6,1422.5c4.2-11.9,7.3-23.5,9.3-35c2-11.5,3-23.2,3-35c0-4.5-0.4-8.8-0.9-12.9
	c-7.3-16-16.1-31.1-26.2-45.2c-7.8-4.6-17.8-7-30.3-7c-14.4,0-26.8,3.1-37.2,9.2c-10.4,6.1-19.1,14-26.2,23.7
	c-7.1,9.7-12.7,20.4-16.9,32.3c-4.2,11.9-7.3,23.5-9.3,35c-2,11.5-3,23.2-3,35c0,11.9,1.8,22.6,5.5,32.3c3.7,9.7,9.6,17.6,17.9,23.7
	c8.2,6.1,19.5,9.2,34,9.2c6.6,0,12.8-0.7,18.6-2c17.7-10.5,34.2-23,49.1-37.1C914,1440.5,918.2,1431.8,921.6,1422.5z M892.4,1369.1
	c-0.8,7.1-1.6,13.2-2.5,18.3c-0.9,5.1-2.2,11.2-3.9,18.3c-1.7,7.1-4.2,14-7.3,20.5c-3.2,6.6-7.3,12.1-12.2,16.7
	c-5,4.6-11.2,6.8-18.5,6.8c-7.5,0-12.9-2.3-16.2-6.8c-3.3-4.6-5.4-10.1-6.2-16.7c-0.9-6.6-0.9-13.4-0.1-20.5
	c0.8-7.1,1.6-13.2,2.5-18.3c0.9-5.1,2.2-11.2,3.9-18.3c1.7-7.1,4.1-14,7.3-20.5c3.2-6.6,7.2-12.1,12.1-16.7
	c4.9-4.6,11.1-6.8,18.6-6.8c7.3,0,12.6,2.3,16,6.8c3.4,4.6,5.5,10.1,6.4,16.7C893.1,1355.1,893.2,1362,892.4,1369.1z"/>
<path class="st1" d="M720.6,1361.4c-4.6,4.4-9.1,8.3-13.6,11.8l-87.2,67.6l-4.8,27.3c3.8,5.5,7.7,10.9,11.9,16.2h120.5l6.4-36.1
	h-85.9l67.8-50.6c4.2-3.3,8.2-6.7,11.9-10.1c3.7-3.5,7.1-7.3,10.1-11.4c3-4.1,5.6-8.7,7.8-13.7c2.2-5,3.8-10.6,4.9-16.8
	c1.7-9.7,1.6-18.2-0.3-25.5c-1.9-7.3-5.3-13.4-10.1-18.2c-4.8-4.8-10.8-8.5-18.1-10.9c-7.2-2.5-15.2-3.7-24-3.7
	c-9.5,0-18.5,1.2-27.1,3.7c-8.6,2.5-16.3,6.2-23.2,11.1c-6.9,4.9-12.8,11.1-17.8,18.5c-5,7.4-8.6,16.1-10.9,26.1l40.5,3
	c1.8-6.9,5.2-12.8,10.3-17.5c5.1-4.7,11.5-7.1,19.2-7.1c6.4,0,11.6,1.9,15.7,5.6c4.1,3.7,5.5,8.9,4.4,15.5
	C728,1351.9,725.2,1357,720.6,1361.4z"/>
<path class="st0" d="M682.5,1570.8c-4.6,4.4-9.1,8.3-13.6,11.8l-87.2,67.6l-4.8,27.3c3.8,5.5,7.7,10.9,11.9,16.2h120.5l6.4-36.1
	h-85.9l67.8-50.6c4.2-3.3,8.2-6.7,11.9-10.1c3.7-3.5,7.1-7.3,10.1-11.4c3-4.1,5.6-8.7,7.7-13.7c2.2-5,3.8-10.6,4.9-16.8
	c1.7-9.7,1.6-18.2-0.3-25.5c-1.9-7.3-5.3-13.4-10.1-18.2c-4.8-4.8-10.8-8.5-18.1-10.9c-7.2-2.5-15.2-3.7-24-3.7
	c-9.5,0-18.5,1.2-27.1,3.7c-8.6,2.5-16.3,6.2-23.2,11.1c-6.9,4.9-12.8,11.1-17.8,18.5c-5,7.4-8.6,16.1-10.9,26.1l40.5,3
	c1.8-6.9,5.2-12.8,10.3-17.5c5.1-4.7,11.5-7.1,19.2-7.1c6.4,0,11.6,1.9,15.7,5.6c4.1,3.7,5.5,8.9,4.4,15.5
	C689.9,1561.3,687.1,1566.4,682.5,1570.8z"/>
<path class="st0" d="M884.3,1631.8c4.2-11.9,7.3-23.5,9.3-35c2-11.5,3-23.2,3-35c0-11.9-1.9-22.6-5.5-32.3
	c-3.7-9.7-9.6-17.6-17.9-23.7c-8.2-6.1-19.6-9.2-34-9.2c-14.4,0-26.8,3.1-37.2,9.2c-10.4,6.1-19.1,14-26.2,23.7
	c-7.1,9.7-12.7,20.4-16.9,32.3c-4.2,11.9-7.3,23.5-9.3,35c-2,11.5-3,23.2-3,35c0,11.9,1.8,22.6,5.5,32.3c3.7,9.7,9.6,17.6,17.9,23.7
	c8.2,6.1,19.5,9.2,34,9.2c6.6,0,12.8-0.7,18.6-2c17.7-10.5,34.2-23,49.1-37.1C876.8,1649.8,881,1641.2,884.3,1631.8z M852.6,1596.8
	c-0.9,5.1-2.2,11.2-3.9,18.3c-1.7,7.1-4.2,14-7.3,20.5c-3.2,6.6-7.3,12.1-12.2,16.7c-5,4.6-11.2,6.8-18.5,6.8
	c-7.5,0-12.9-2.3-16.2-6.8c-3.3-4.6-5.4-10.1-6.2-16.7c-0.9-6.6-0.9-13.4-0.1-20.5c0.8-7.1,1.6-13.2,2.5-18.3
	c0.9-5.1,2.2-11.2,3.9-18.3c1.7-7.1,4.1-14,7.3-20.5c3.2-6.6,7.2-12.1,12.1-16.7c4.9-4.6,11.1-6.8,18.6-6.8c7.3,0,12.6,2.3,16,6.8
	c3.4,4.6,5.5,10.1,6.4,16.7c0.8,6.6,0.9,13.4,0.1,20.5C854.3,1585.6,853.5,1591.7,852.6,1596.8z"/>
</svg>
